HIERARCHY
ROOT hip
{
  OFFSET 0 0 0
  CHANNELS 6 Xposition Yposition Zposition Zrotation Yrotation Xrotation
  JOINT abdomen
  {
    OFFSET 0 20.6881 -0.73152
    CHANNELS 3 Zrotation Xrotation Yrotation
    JOINT chest
    {
      OFFSET 0 11.7043 -0.48768
      CHANNELS 3 Zrotation Xrotation Yrotation
      JOINT neck
      {
        OFFSET 0 22.1894 -2.19456
        CHANNELS 3 Zrotation Xrotation Yrotation
        JOINT head
        {
          OFFSET -0.24384 7.07133 1.2192
          CHANNELS 3 Zrotation Xrotation Yrotation
          JOINT leftEye
          {
            OFFSET 4.14528 8.04674 8.04672
            CHANNELS 3 Zrotation Xrotation Yrotation
            End Site
            {
              OFFSET 1 0 0
            }
          }
          JOINT rightEye
          {
            OFFSET -3.6576 8.04674 8.04672
            CHANNELS 3 Zrotation Xrotation Yrotation
            End Site
            {
              OFFSET 1 0 0
            }
          }
        }
      }
      JOINT rCollar
      {
        OFFSET -2.68224 19.2634 -4.8768
        CHANNELS 3 Zrotation Xrotation Yrotation
        JOINT rShldr
        {
          OFFSET -8.77824 -1.95073 1.46304
          CHANNELS 3 Zrotation Xrotation Yrotation
          JOINT rForeArm
          {
            OFFSET -28.1742 -1.7115 0.48768
            CHANNELS 3 Zrotation Xrotation Yrotation
            JOINT rHand
            {
              OFFSET -22.5879 0.773209 7.07136
              CHANNELS 3 Zrotation Xrotation Yrotation
              JOINT rThumb1
              {
                OFFSET -1.2192 -0.487915 3.41376
                CHANNELS 3 Zrotation Xrotation Yrotation
                JOINT rThumb2
                {
                  OFFSET -3.37035 -0.52449 3.41376
                  CHANNELS 3 Zrotation Xrotation Yrotation
                  End Site
                  {
                    OFFSET -1.78271 -1.18214 1.43049
                  }
                }
              }
              JOINT rIndex1
              {
                OFFSET -7.75947 0.938293 5.60832
                CHANNELS 3 Zrotation Xrotation Yrotation
                JOINT rIndex2
                {
                  OFFSET -2.54057 -0.884171 1.56538
                  CHANNELS 3 Zrotation Xrotation Yrotation
                  End Site
                  {
                    OFFSET -1.62519 -0.234802 1.16502
                  }
                }
              }
              JOINT rMid1
              {
                OFFSET -8.24714 1.18213 3.41376
                CHANNELS 3 Zrotation Xrotation Yrotation
                JOINT rMid2
                {
                  OFFSET -3.10165 -0.590103 1.0647
                  CHANNELS 3 Zrotation Xrotation Yrotation
                  End Site
                  {
                    OFFSET -2.48547 -0.328903 0.83742
                  }
                }
              }
              JOINT rRing1
              {
                OFFSET -8.82822 0.546677 1.51678
                CHANNELS 3 Zrotation Xrotation Yrotation
                JOINT rRing2
                {
                  OFFSET -2.60934 -0.819778 -0.0198488
                  CHANNELS 3 Zrotation Xrotation Yrotation
                  End Site
                  {
                    OFFSET -2.33842 -0.294052 0.168128
                  }
                }
              }
              JOINT rPinky1
              {
                OFFSET -8.27202 -0.0477905 -0.4584
                CHANNELS 3 Zrotation Xrotation Yrotation
                JOINT rPinky2
                {
                  OFFSET -1.82734 -0.647385 -0.700984
                  CHANNELS 3 Zrotation Xrotation Yrotation
                  End Site
                  {
                    OFFSET -1.69225 -0.51767 -0.607171
                  }
                }
              }
            }
          }
        }
      }
      JOINT lCollar
      {
        OFFSET 2.68224 19.2634 -4.8768
        CHANNELS 3 Zrotation Xrotation Yrotation
        JOINT lShldr
        {
          OFFSET 8.77824 -1.95073 1.46304
          CHANNELS 3 Zrotation Xrotation Yrotation
          JOINT lForeArm
          {
            OFFSET 28.1742 -1.7115 0.48768
            CHANNELS 3 Zrotation Xrotation Yrotation
            JOINT lHand
            {
              OFFSET 22.5879 0.773209 7.07136
              CHANNELS 3 Zrotation Xrotation Yrotation
              JOINT lThumb1
              {
                OFFSET 1.2192 -0.487915 3.41376
                CHANNELS 3 Zrotation Xrotation Yrotation
                JOINT lThumb2
                {
                  OFFSET 3.37035 -0.52449 3.41376
                  CHANNELS 3 Zrotation Xrotation Yrotation
                  End Site
                  {
                    OFFSET 1.78271 -1.18214 1.43049
                  }
                }
              }
              JOINT lIndex1
              {
                OFFSET 7.75947 0.938293 5.60832
                CHANNELS 3 Zrotation Xrotation Yrotation
                JOINT lIndex2
                {
                  OFFSET 2.54057 -0.884171 1.56538
                  CHANNELS 3 Zrotation Xrotation Yrotation
                  End Site
                  {
                    OFFSET 1.62519 -0.234802 1.16502
                  }
                }
              }
              JOINT lMid1
              {
                OFFSET 8.24714 1.18213 3.41376
                CHANNELS 3 Zrotation Xrotation Yrotation
                JOINT lMid2
                {
                  OFFSET 3.10165 -0.590103 1.0647
                  CHANNELS 3 Zrotation Xrotation Yrotation
                  End Site
                  {
                    OFFSET 2.48547 -0.328903 0.83742
                  }
                }
              }
              JOINT lRing1
              {
                OFFSET 8.82822 0.546677 1.51678
                CHANNELS 3 Zrotation Xrotation Yrotation
                JOINT lRing2
                {
                  OFFSET 2.60934 -0.819778 -0.0198488
                  CHANNELS 3 Zrotation Xrotation Yrotation
                  End Site
                  {
                    OFFSET 2.33842 -0.294052 0.168128
                  }
                }
              }
              JOINT lPinky1
              {
                OFFSET 8.27202 -0.0477905 -0.4584
                CHANNELS 3 Zrotation Xrotation Yrotation
                JOINT lPinky2
                {
                  OFFSET 1.82734 -0.647385 -0.700984
                  CHANNELS 3 Zrotation Xrotation Yrotation
                  End Site
                  {
                    OFFSET 1.69225 -0.51767 -0.607171
                  }
                }
              }
            }
          }
        }
      }
    }
  }
  JOINT rButtock
  {
    OFFSET -8.77824 4.35084 1.2192
    CHANNELS 3 Zrotation Xrotation Yrotation
    JOINT rThigh
    {
      OFFSET 0 -1.70687 -2.19456
      CHANNELS 3 Zrotation Xrotation Yrotation
      JOINT rShin
      {
        OFFSET 0 -36.8199 0.73152
        CHANNELS 3 Zrotation Xrotation Yrotation
        JOINT rFoot
        {
          OFFSET 0.73152 -45.1104 -5.12064
          CHANNELS 3 Zrotation Xrotation Yrotation
          End Site
          {
            OFFSET -1.1221 -3.69964 12.103
          }
        }
      }
    }
  }
  JOINT lButtock
  {
    OFFSET 8.77824 4.35084 1.2192
    CHANNELS 3 Zrotation Xrotation Yrotation
    JOINT lThigh
    {
      OFFSET 0 -1.70687 -2.19456
      CHANNELS 3 Zrotation Xrotation Yrotation
      JOINT lShin
      {
        OFFSET 0 -36.8199 0.73152
        CHANNELS 3 Zrotation Xrotation Yrotation
        JOINT lFoot
        {
          OFFSET -0.73152 -45.1104 -5.12064
          CHANNELS 3 Zrotation Xrotation Yrotation
          End Site
          {
            OFFSET 1.1221 -3.69964 12.103
          }
        }
      }
    }
  }
}
MOTION
Frames:	6
Frame Time:	0.00833333
38.6202 84.9248 95.7912 0.0 0.0 0.0 -0.112401 -0.00252033 -0.00326494 -0.0310776 -0.00419852 -0.00538463 3.98495e-16 0.0 -2.32951e-17 1.1896e-15 3.18055e-15 -7.14382e-17 -0.0 0.0 0.0 -0.0 0.0 0.0 2.47216e-16 9.12391e-18 1.49089e-16 5.93073e-15 3.35449e-16 5.96354e-16 7.45939e-14 -1.09332e-14 -1.90833e-14 8.01345e-13 6.86553e-14 -4.77083e-14 1.89599e-12 1.22726e-13 -1.24042e-13 3.26245e-12 2.09917e-13 -2.2741e-13 1.89998e-12 1.21656e-13 -1.30403e-13 7.73091 5.47488 0.417314 1.89447e-12 1.21954e-13 -1.17681e-13 2.90554 0.965183 0.102902 1.90351e-12 1.22352e-13 -1.25632e-13 10.2786 0.731801 0.0259123 1.88965e-12 1.25632e-13 -1.20861e-13 2.22167 -0.733487 -0.20892 1.50367e-16 9.12391e-18 -1.49089e-16 2.01939e-15 1.2424e-16 -9.93923e-16 6.49032e-14 2.80286e-14 2.8625e-14 8.08631e-13 1.49585e-14 -7.95139e-14 1.897e-12 9.39179e-14 -1.20861e-13 3.28591e-12 1.62208e-13 -2.0276e-13 1.89203e-12 9.46215e-14 -1.20861e-13 -7.73091 5.47488 -0.417314 1.898e-12 9.36276e-14 -1.20861e-13 -2.90554 0.965183 -0.102902 1.88771e-12 9.42239e-14 -1.17681e-13 -10.2786 0.731801 -0.0259123 1.90774e-12 9.81996e-14 -1.27222e-13 -2.22167 -0.733487 0.20892 -2.03217e-16 0.0 -3.88251e-19 0.354932 -2.94056 -0.0354302 -0.00588095 -0.224751 -0.051771 -0.439783 3.16568 0.113075 2.03217e-16 0.0 3.88251e-19 -0.52777 -3.42453 0.0465081 0.00449892 0.65185 0.039053 0.443091 2.77306 -0.105715
38.8889 82.0425 90.9001 178.259 13.6808 -151.344 -0.464637 -9.35346 -1.69561 0.169756 -1.19982 0.0671858 -4.24677 2.22556 -3.68727 2.3196 4.95651 -5.78062 -0.0 0.0 0.0 -0.0 0.0 0.0 -1.24127e-14 8.8664e-14 -3.11843e-15 18.1669 27.5623 -11.041 -24.5478 -22.3809 14.5477 0.501315 -15.8217 -1.92948 -4.46403e-10 8.87042e-10 -3.00479e-10 -7.53721e-10 1.49315e-09 -5.3534e-10 -4.46399e-10 8.87041e-10 -3.00489e-10 7.73091 5.47488 0.417314 -4.46405e-10 8.8704e-10 -3.00474e-10 2.90554 0.965183 0.102902 -4.46395e-10 8.87041e-10 -3.00478e-10 10.2786 0.731801 0.0259123 -4.4641e-10 8.87043e-10 -3.00473e-10 2.22167 -0.733487 -0.20892 -1.24952e-14 8.86651e-14 -3.3906e-15 -18.3405 27.806 10.6818 23.6135 -21.4805 -14.7679 -0.921504 -21.589 2.31004 2.45739e-10 2.69021e-10 -9.35016e-11 4.22067e-10 4.26475e-10 -1.40775e-10 2.45735e-10 2.69022e-10 -9.34981e-11 -7.73091 5.47488 -0.417314 2.4574e-10 2.69021e-10 -9.35007e-11 -2.90554 0.965183 -0.102902 2.45728e-10 2.69021e-10 -9.34974e-11 -10.2786 0.731801 -0.0259123 2.45747e-10 2.69024e-10 -9.3505e-11 -2.22167 -0.733487 0.20892 -2.03217e-16 0.0 -3.88251e-19 -0.347267 -12.9148 0.733104 -0.00172017 12.4182 0.122367 -0.601352 1.88959 -1.88623 2.03217e-16 0.0 3.88251e-19 -1.32131 -17.8239 -2.86344 0.0429683 8.95029 0.00497013 0.596978 1.84431 4.06627
38.7396 82.0113 90.4102 178.13 13.7865 -151.445 -1.4495 -19.2169 -3.64296 0.384529 -2.46874 0.142658 -8.45256 4.56914 -7.61862 5.90712 9.96632 -12.0796 -0.0 0.0 0.0 -0.0 0.0 0.0 -2.53245e-14 1.92426e-13 -8.02593e-15 55.2084 52.4688 -34.3484 -35.3413 -40.7168 37.7194 -0.322017 -32.4923 -4.52962 -9.38797e-10 1.86153e-09 -6.34345e-10 -1.58497e-09 3.13276e-09 -1.12984e-09 -9.38792e-10 1.86153e-09 -6.34359e-10 7.73091 5.47488 0.417314 -9.38798e-10 1.86153e-09 -6.34343e-10 2.90554 0.965183 0.102902 -9.38788e-10 1.86153e-09 -6.34343e-10 10.2786 0.731801 0.0259123 -9.38804e-10 1.86153e-09 -6.34336e-10 2.22167 -0.733487 -0.20892 -2.53921e-14 1.92429e-13 -8.27131e-15 -55.4562 53.155 33.6797 34.1763 -38.9785 -37.4737 0.67618 -44.2777 6.17731 5.23882e-10 5.74091e-10 -1.94157e-10 8.99403e-10 9.104e-10 -2.912e-10 5.23879e-10 5.74093e-10 -1.9415e-10 -7.73091 5.47488 -0.417314 5.23884e-10 5.74091e-10 -1.94155e-10 -2.90554 0.965183 -0.102902 5.2387e-10 5.74092e-10 -1.94152e-10 -10.2786 0.731801 -0.0259123 5.23887e-10 5.74094e-10 -1.94157e-10 -2.22167 -0.733487 0.20892 -2.03217e-16 0.0 -3.88251e-19 -0.751415 -23.3827 1.67965 -0.0869839 25.6847 0.333094 -0.874931 0.441568 -3.99932 2.03217e-16 0.0 3.88251e-19 -4.00203 -32.9212 -6.7463 0.094668 17.7133 -0.033309 0.904374 0.8877 8.47685
38.5897 81.9808 89.939 177.981 13.8964 -151.536 -3.00964 -27.9506 -5.67661 0.580525 -3.59104 0.2127 -11.8821 6.56584 -11.1274 9.98793 14.2562 -17.8439 -0.0 0.0 0.0 -0.0 0.0 0.0 -3.77325e-14 2.65974e-13 -9.65348e-15 116.933 60.1236 -79.478 -31.0852 -45.4597 67.2148 -2.96083 -47.1965 -8.21117 -1.343e-09 2.66088e-09 -9.01188e-10 -2.26769e-09 4.47903e-09 -1.60557e-09 -1.343e-09 2.66088e-09 -9.01205e-10 7.73091 5.47488 0.417314 -1.343e-09 2.66088e-09 -9.01187e-10 2.90554 0.965183 0.102902 -1.34299e-09 2.66088e-09 -9.01184e-10 10.2786 0.731801 0.0259123 -1.34301e-09 2.66088e-09 -9.01177e-10 2.22167 -0.733487 -0.20892 -3.77864e-14 2.65977e-13 -9.87362e-15 -118.794 61.2335 80.2045 30.9144 -43.6332 -65.4258 8.10722 -64.0558 14.8637 7.33423e-10 8.06874e-10 -2.80263e-10 1.25963e-09 1.2791e-09 -4.2192e-10 7.3342e-10 8.06877e-10 -2.80253e-10 -7.73091 5.47488 -0.417314 7.33425e-10 8.06875e-10 -2.80261e-10 -2.90554 0.965183 -0.102902 7.33409e-10 8.06876e-10 -2.80257e-10 -10.2786 0.731801 -0.0259123 7.33426e-10 8.06876e-10 -2.80261e-10 -2.22167 -0.733487 0.20892 -2.03217e-16 0.0 -3.88251e-19 -0.816793 -32.8386 2.63588 -0.272021 37.7027 0.583997 -1.19122 -0.656059 -5.88181 2.03217e-16 0.0 3.88251e-19 -8.94605 -46.0569 -11.9636 0.151629 25.5472 -0.0702393 1.30809 0.00071649 12.4037
38.4552 81.9454 89.4821 177.846 14.0148 -151.628 -4.64631 -33.9592 -7.3622 0.723357 -4.34681 0.268817 -13.9948 7.8054 -13.5136 13.1805 17.3356 -21.8129 -0.0 0.0 0.0 -0.0 0.0 0.0 -4.88809e-14 2.63984e-13 -3.08116e-15 158.164 52.4202 -106.552 -27.9595 -40.6226 85.0447 -6.89111 -57.2097 -12.6009 -1.52673e-09 3.02239e-09 -1.00047e-09 -2.57907e-09 5.09192e-09 -1.78433e-09 -1.52673e-09 3.02239e-09 -1.00049e-09 7.73091 5.47488 0.417314 -1.52674e-09 3.02239e-09 -1.00047e-09 2.90554 0.965183 0.102902 -1.52673e-09 3.02239e-09 -1.00047e-09 10.2786 0.731801 0.0259123 -1.52674e-09 3.02239e-09 -1.00046e-09 2.22167 -0.733487 -0.20892 -4.89244e-14 2.63988e-13 -3.27995e-15 -161.228 53.4025 108.433 28.1937 -39.229 -82.5523 28.6618 -76.5212 35.8985 7.71455e-10 8.58941e-10 -3.29995e-10 1.32708e-09 1.35973e-09 -5.03379e-10 7.71453e-10 8.58943e-10 -3.29983e-10 -7.73091 5.47488 -0.417314 7.71458e-10 8.58941e-10 -3.29992e-10 -2.90554 0.965183 -0.102902 7.71442e-10 8.58941e-10 -3.29989e-10 -10.2786 0.731801 -0.0259123 7.71457e-10 8.58941e-10 -3.29992e-10 -2.22167 -0.733487 0.20892 -2.03217e-16 0.0 -3.88251e-19 -0.794424 -39.7921 3.25613 -0.509819 46.6009 0.839664 -1.39267 -0.890183 -7.18512 2.03217e-16 0.0 3.88251e-19 -14.9742 -54.7844 -17.6645 0.197871 31.0579 -0.0963308 1.68534 -0.733031 15.1232
38.3205 81.8932 89.0288 177.722 14.1207 -151.705 -5.62202 -36.2308 -8.07845 0.78744 -4.58868 0.306858 -14.5306 8.04879 -14.288 14.1422 19.1738 -22.9709 -0.0 0.0 0.0 -0.0 0.0 0.0 -6.16778e-14 1.23292e-13 6.54281e-15 170.71 47.6791 -112.85 -27.9219 -37.3911 90.0756 -9.24555 -60.9513 -15.0724 -1.33539e-09 2.63373e-09 -7.85043e-10 -2.26002e-09 4.44855e-09 -1.40725e-09 -1.33539e-09 2.63373e-09 -7.85061e-10 7.73091 5.47488 0.417314 -1.33539e-09 2.63373e-09 -7.85042e-10 2.90554 0.965183 0.102902 -1.33539e-09 2.63373e-09 -7.85039e-10 10.2786 0.731801 0.0259123 -1.3354e-09 2.63373e-09 -7.8503e-10 2.22167 -0.733487 -0.20892 -6.17138e-14 1.23299e-13 6.36344e-15 -174.086 48.6646 115.13 28.1305 -36.2154 -87.5538 50.0199 -80.0003 57.355 5.56285e-10 6.09376e-10 -3.20062e-10 9.6278e-10 9.63651e-10 -5.0277e-10 5.56282e-10 6.09376e-10 -3.20048e-10 -7.73091 5.47488 -0.417314 5.56287e-10 6.09374e-10 -3.20058e-10 -2.90554 0.965183 -0.102902 5.56272e-10 6.09374e-10 -3.20057e-10 -10.2786 0.731801 -0.0259123 5.56287e-10 6.09375e-10 -3.20061e-10 -2.22167 -0.733487 0.20892 -2.03217e-16 0.0 -3.88251e-19 -1.15828 -43.2647 3.0563 -0.680261 51.1631 0.996575 -1.31381 0.231683 -7.62932 2.03217e-16 0.0 3.88251e-19 -18.4075 -57.9231 -20.5696 0.216416 33.3205 -0.0993026 1.90566 -1.28075 16.1451
